# Blender 4.2.3 LTS
# www.blender.org
mtllib medhelm.mtl
o medhelm
v 91.033920 -102.852821 62.437580
v -91.033920 -108.739891 81.367653
v -91.033920 -102.852821 62.437584
v 91.033920 79.446045 45.359924
v 109.240700 -29.913336 70.072891
v 109.240700 -27.917738 87.873505
v 91.033920 81.441643 63.160526
v 91.033920 84.634521 234.525146
v 91.033928 -108.540421 226.031387
v 91.033920 -108.739891 81.367638
v -109.240700 -29.913336 70.072899
v -54.620350 -45.778393 -0.000027
v -0.000003 59.689533 12.017703
v 54.620350 -45.778393 -0.000027
v 27.310171 88.326515 53.130745
v 91.033920 71.663124 118.821266
v 27.310171 101.297897 168.834625
v 27.310171 100.399841 232.266205
v 81.930527 76.751877 235.654633
v 109.240700 -10.955142 239.178558
v -91.033913 -108.540421 226.031387
v -109.240700 -10.955142 239.178558
v -109.240700 -27.917738 87.873505
v -91.033920 79.446045 45.359924
v -27.310179 88.326515 53.130745
v -27.310179 90.322105 70.931351
v -9.103395 84.435036 89.861427
v 27.310171 90.322105 70.931351
v 9.103389 76.552391 90.990906
v 27.310171 82.439445 72.060844
v -79.517044 63.715019 42.807873
v 84.568008 63.715019 41.204868
v 102.905449 -15.046081 131.245514
v 100.137306 -10.955142 239.178558
v 81.930527 63.780476 119.950737
v 27.310171 93.415237 169.964111
v 27.310171 108.282486 231.136719
v -27.310179 101.297897 168.834625
v -27.310179 100.399841 232.266205
v -91.033920 84.634521 234.525162
v 9.103388 106.187157 141.004257
v -9.103395 106.187157 141.004257
v 9.103388 84.435036 89.861427
v 9.103388 98.304497 142.133743
v -9.103395 76.552391 90.990906
v -27.310179 82.439445 72.060844
v -54.620350 -41.934525 8.653956
v 88.898476 -78.588661 63.563232
v -91.033920 81.441643 63.160534
v -91.033920 71.663124 118.821266
v -27.310179 93.415237 169.964111
v -81.930527 63.780476 119.950737
v -87.546844 -100.410469 69.228706
v 54.620350 -41.934525 8.653956
v 74.775154 -98.545387 71.663277
v 83.543854 -100.007057 116.289429
v -81.930527 -100.657745 224.901901
v 81.930527 -100.657745 224.901886
v -27.310179 108.282486 231.136734
v -81.930527 76.751877 235.654633
v -100.137306 -10.955142 239.178558
v -102.600334 -15.046081 131.245514
v -92.812241 -100.007057 116.289436
v 82.932678 -92.363243 65.934441
v -94.668625 10.922975 64.302353
v -9.103395 98.304497 142.133743
v 103.198532 -28.490301 69.949738
v -101.878227 -28.490301 69.949738
v 0.375291 65.022453 23.732151
vn 0.9692 -0.2448 0.0274
vn 0.9745 -0.2142 -0.0666
vn -0.0000 -0.9549 -0.2970
vn -0.0000 -0.7381 -0.6747
vn 0.7961 -0.1370 -0.5895
vn 0.7895 -0.0073 -0.6137
vn 0.9869 0.1602 -0.0180
vn 0.9849 0.1707 0.0300
vn 0.9823 0.1861 -0.0209
vn 0.9823 -0.1861 0.0209
vn 0.9755 -0.2198 0.0003
vn -0.0000 -1.0000 0.0014
vn -0.9755 -0.2198 0.0003
vn -0.9748 -0.2216 0.0248
vn -0.9694 -0.2344 -0.0729
vn -0.7961 -0.1370 -0.5895
vn -0.7895 -0.0073 -0.6137
vn -0.2840 0.2525 -0.9250
vn -0.0000 0.1132 -0.9936
vn 0.2840 0.2525 -0.9250
vn 0.0406 0.8070 -0.5891
vn 0.1239 0.9861 -0.1106
vn 0.1564 0.9728 0.1709
vn -0.5748 0.1161 0.8100
vn -0.4157 0.5804 0.7002
vn -0.4445 0.3983 -0.8024
vn 0.3509 0.9306 -0.1043
vn -0.0000 0.1418 0.9899
vn 0.0700 0.0618 0.9956
vn -0.0000 0.0401 0.9992
vn -0.0000 -0.1335 0.9910
vn -0.2161 -0.1105 0.9701
vn 0.2020 -0.0936 0.9749
vn -0.9823 -0.1861 0.0209
vn -0.9823 0.1861 -0.0209
vn -0.9849 0.1707 0.0300
vn -0.9869 0.1602 -0.0180
vn -0.1239 0.9861 -0.1106
vn -0.0406 0.8070 -0.5891
vn -0.0000 0.8206 -0.5716
vn -0.0000 0.9938 -0.1114
vn -0.0000 0.9549 0.2970
vn 0.7011 0.1011 0.7058
vn -0.0000 -0.8422 0.5391
vn 0.0033 -0.9414 0.3374
vn -0.3156 -0.9489 -0.0098
vn -0.9647 -0.2613 -0.0321
vn -0.9657 -0.2591 -0.0149
vn -0.9791 -0.2023 0.0227
vn -0.4006 -0.9106 0.1021
vn -0.7011 -0.1011 -0.7058
vn -1.0000 -0.0000 -0.0000
vn -0.3509 0.9306 -0.1043
vn 1.0000 -0.0000 -0.0000
vn 0.6445 -0.1085 -0.7569
vn -0.0000 0.9202 -0.3914
vn -0.0000 -0.9202 0.3914
vn -0.7011 0.1011 0.7058
vn 0.6338 0.1097 0.7657
vn 0.3320 -0.9432 0.0112
vn 0.9294 -0.1254 0.3472
vn 0.0097 -0.1445 0.9895
vn -0.0000 -0.2944 0.9557
vn -0.9230 -0.0685 0.3786
vn -0.9226 0.2233 0.3144
vn -0.9747 0.2236 -0.0082
vn -0.9744 0.2244 -0.0131
vn -0.9785 0.2038 -0.0328
vn -0.1564 0.9728 0.1709
vn 0.3896 0.5552 0.7348
vn 0.4699 0.4325 -0.7695
vn 0.4006 -0.9106 0.1021
vn 0.9679 -0.2498 0.0280
vn 0.9604 -0.1838 0.2094
vn 0.9286 0.1818 0.3236
vn -0.0000 0.7195 0.6945
vn -0.0186 0.7408 0.6715
vn -0.2609 0.8185 0.5118
vn -0.7941 0.4196 0.4398
vn -0.0000 0.9995 0.0327
vn -0.0000 1.0000 0.0060
vn -0.0000 0.0486 0.9988
vn -0.0753 0.0556 0.9956
vn 0.9789 -0.2038 -0.0146
vn 0.9925 0.1191 -0.0272
vn 0.9894 0.0946 0.1099
vn -0.0113 0.9999 -0.0098
vn -0.0000 -0.1572 0.9876
vn 0.9724 0.2127 -0.0961
s 0
f 1//1 5//1 6//1
f 1//2 6//2 10//2
f 1//3 10//3 2//3
f 1//3 2//3 3//3
f 1//4 3//4 12//4
f 1//4 12//4 14//4
f 1//5 14//5 5//5
f 5//6 14//6 4//6
f 5//7 4//7 6//7
f 6//7 4//7 7//7
f 6//8 7//8 16//8
f 6//9 16//9 8//9
f 6//9 8//9 20//9
f 6//10 20//10 9//10
f 6//11 9//11 10//11
f 10//12 9//12 2//12
f 2//12 9//12 21//12
f 2//13 21//13 23//13
f 2//14 23//14 11//14
f 2//15 11//15 3//15
f 3//16 11//16 12//16
f 12//17 11//17 24//17
f 12//18 24//18 13//18
f 12//19 13//19 14//19
f 14//20 13//20 4//20
f 4//21 13//21 15//21
f 4//22 15//22 7//22
f 7//22 15//22 28//22
f 7//23 28//23 16//23
f 16//24 28//24 30//24
f 16//25 30//25 35//25
f 16//26 35//26 17//26
f 16//27 17//27 8//27
f 8//27 17//27 37//27
f 8//28 37//28 18//28
f 8//28 18//28 19//28
f 8//29 19//29 20//29
f 20//30 19//30 34//30
f 20//31 34//31 9//31
f 9//32 34//32 58//32
f 9//28 58//28 21//28
f 21//28 58//28 57//28
f 21//33 57//33 22//33
f 21//34 22//34 23//34
f 23//35 22//35 40//35
f 23//35 40//35 50//35
f 23//36 50//36 49//36
f 23//37 49//37 11//37
f 11//37 49//37 24//37
f 24//38 49//38 26//38
f 24//38 26//38 25//38
f 24//39 25//39 13//39
f 13//40 25//40 15//40
f 15//41 25//41 28//41
f 28//41 25//41 26//41
f 28//42 26//42 27//42
f 28//42 27//42 43//42
f 28//43 43//43 29//43
f 28//43 29//43 30//43
f 30//3 29//3 46//3
f 30//44 46//44 31//44
f 30//45 31//45 69//45 32//45
f 30//46 32//46 35//46
f 35//47 32//47 33//47
f 35//48 33//48 34//48
f 35//49 34//49 19//49
f 35//50 19//50 36//50
f 35//51 36//51 17//51
f 17//52 36//52 37//52
f 37//52 36//52 18//52
f 18//50 36//50 19//50
f 38//53 40//53 59//53
f 38//54 59//54 39//54
f 38//54 39//54 51//54
f 38//55 51//55 50//55
f 38//53 50//53 40//53
f 42//56 41//56 43//56
f 42//56 43//56 27//56
f 42//52 27//52 45//52
f 42//52 45//52 66//52
f 42//28 66//28 41//28
f 41//28 66//28 44//28
f 41//54 44//54 43//54
f 43//54 44//54 29//54
f 29//57 44//57 45//57
f 29//3 45//3 46//3
f 46//58 45//58 27//58
f 46//58 27//58 26//58
f 46//59 26//59 52//59
f 46//60 52//60 31//60
f 31//61 52//61 65//61 47//61
f 31//62 47//62 32//62 69//62
f 32//63 47//63 54//63
f 32//64 54//64 67//64 33//64
f 33//65 67//65 54//65 48//65
f 33//66 48//66 56//66
f 33//67 56//67 58//67
f 33//68 58//68 34//68
f 49//69 50//69 26//69
f 26//70 50//70 52//70
f 52//71 50//71 51//71
f 52//72 51//72 60//72
f 52//73 60//73 62//73
f 52//74 62//74 68//74 47//74 65//74
f 47//75 68//75 62//75 53//75
f 47//76 53//76 54//76
f 54//77 53//77 55//77
f 54//78 55//78 56//78 64//78
f 54//79 64//79 56//79 48//79
f 56//80 55//80 63//80
f 56//81 63//81 57//81
f 56//81 57//81 58//81
f 59//28 40//28 60//28
f 59//28 60//28 39//28
f 39//72 60//72 51//72
f 40//82 22//82 61//82
f 40//83 61//83 60//83
f 60//84 61//84 62//84
f 62//85 61//85 63//85
f 62//86 63//86 53//86
f 53//87 63//87 55//87
f 22//88 57//88 61//88
f 61//89 57//89 63//89
f 45//57 44//57 66//57
